<svg width="32" height="32" viewBox="0 0 32 32" fill="none" xmlns="http://www.w3.org/2000/svg">
  <!-- Background circle -->
  <circle cx="16" cy="16" r="15" fill="#1e40af" stroke="#1e3a8a" stroke-width="2"/>
  
  <!-- Phone icon -->
  <path d="M8 6C8 5.44772 8.44772 5 9 5H13C13.5523 5 14 5.44772 14 6V8C14 8.55228 13.5523 9 13 9H9C8.44772 9 8 8.55228 8 8V6Z" fill="white"/>
  
  <!-- Phone base -->
  <rect x="9" y="9" width="4" height="6" rx="1" fill="white"/>
  
  <!-- Phone cord/connection lines -->
  <path d="M11 15L11 19" stroke="white" stroke-width="1.5" stroke-linecap="round"/>
  <path d="M9 17L13 17" stroke="white" stroke-width="1.5" stroke-linecap="round"/>
  
  <!-- Gear/operations icon -->
  <circle cx="22" cy="10" r="3" fill="none" stroke="white" stroke-width="1.5"/>
  <circle cx="22" cy="10" r="1.5" fill="white"/>
  <path d="M20.5 10L23.5 10" stroke="white" stroke-width="1.5" stroke-linecap="round"/>
  <path d="M22 8.5L22 11.5" stroke="white" stroke-width="1.5" stroke-linecap="round"/>
  
  <!-- Small dots representing automation/24-7 -->
  <circle cx="24" cy="20" r="1" fill="white"/>
  <circle cx="26" cy="22" r="1" fill="white"/>
  <circle cx="24" cy="24" r="1" fill="white"/>
</svg>
